<?xml version="1.0" encoding="UTF-8"?>
<svg id="Layer_1" data-name="Layer 1" xmlns="http://www.w3.org/2000/svg" viewBox="0 0 320 320">
  <defs>
    <style>
      .cls-1 {
        fill: #6b21a8;
      }

      .cls-1, .cls-2 {
        fill-rule: evenodd;
      }

      .cls-1, .cls-2, .cls-3 {
        stroke-width: 0px;
      }

      .cls-2 {
        fill: #0891b2;
      }

      .cls-3 {
        fill: #eff8f9;
      }
    </style>
  </defs>
  <rect class="cls-3" width="320" height="320"/>
  <path class="cls-1" d="m10,217.89l8.02,8.64,90.11,80.85,93.19-99.36,10.49-20.37-11.72-19.75-14.2,27.15-79.61,84.55-70.97-64.81,14.2-25.92-1.23-4.32-9.87-16.67-28.39,49.99h0ZM101.34,16.09L10,103.72l69.74,122.2,27.15,22.22,38.26-20.37,20.98-22.22-35.17-16.67-2.47-2.47-38.26-69.74,4.94-8.64,26.54-23.45-19.13-9.25-22.84,19.13-24.07,43.82-1.85,1.23-18.52-32.71,66.04-62.94,38.88,37.02,13.58-14.2-52.46-50.61v.02Zm-24.07,123.43l1.85-.62,35.79,64.18,16.67,8.02-.62,1.85-20.37,11.1h-1.85l-12.96-10.49-29.62-51.84v-2.47l11.1-19.75h0Z"/>
  <path class="cls-2" d="m216.13,74.72l-46.29,24.69-16.05,15.43,27.15,12.34,8.64,5.55,38.26,69.74v2.47l-4.32,7.4-31.47,25.92,20.37,9.87,27.15-22.84,24.07-43.2h1.85l17.9,32.71-66.66,61.09-5.55,3.08-32.71-35.79h-1.23l-12.96,14.82,47.52,49.99,96.89-88.25.62-1.85-69.74-122.81-23.45-20.37h0Zm-3.7,24.69l2.47.62,8.64,8.02,29,51.84v1.85l-11.1,19.13h-2.47l-35.17-64.81-9.25-4.32-.62-2.47,18.52-9.87h0Zm96.89,3.7L217.36,15.48l-100.6,97.51-9.87,19.75,11.72,20.98,14.2-27.77,85.16-82.08,65.42,63.56-14.82,25.92,11.72,20.37,29-50.61h.02Z"/>
</svg>