<svg xmlns="http://www.w3.org/2000/svg" viewBox="0 0 64 64" fill="none">
  <rect width="64" height="64" rx="16" fill="#0F5D73"/>
  <path d="M18 23.5C18 20.4624 20.4624 18 23.5 18H40.5C43.5376 18 46 20.4624 46 23.5V28.5C46 31.5376 43.5376 34 40.5 34H27.5C25.567 34 24 35.567 24 37.5V40.5C24 43.5376 21.5376 46 18.5 46H18V23.5Z" fill="#9BE8FF"/>
  <path d="M46 40.5C46 43.5376 43.5376 46 40.5 46H23.5C20.4624 46 18 43.5376 18 40.5V35.5C18 32.4624 20.4624 30 23.5 30H36.5C38.433 30 40 28.433 40 26.5V23.5C40 20.4624 42.4624 18 45.5 18H46V40.5Z" fill="#34B6DC"/>
</svg>
