<?xml version="1.0" encoding="UTF-8"?>
<svg id="Layer_1_copy" data-name="Layer 1 copy" xmlns="http://www.w3.org/2000/svg" viewBox="0 0 1693.57 457.04">
  <defs>
    <style>
      .cls-1 {
        fill: #6455bc;
      }

      .cls-1, .cls-2 {
        fill-rule: evenodd;
        stroke-width: 0px;
      }

      .cls-2 {
        fill: #72157c;
      }

      .cls-3 {
        fill: #34729b;
        font-family: Bahnschrift-SemiBold, Bahnschrift;
        font-size: 250px;
        font-variation-settings: 'wght' 600, 'wdth' 100;
        font-weight: 600;
        letter-spacing: .03em;
      }

      .cls-4 {
        fill: #0857a0;
        font-family: FranklinGothic-Heavy, 'Franklin Gothic Heavy';
        font-size: 50px;
        font-weight: 800;
        letter-spacing: .15em;
      }
    </style>
  </defs>
  <path class="cls-1" d="m88.45,294.21l8.54,9.2,95.91,86.06,99.19-105.76,11.17-21.68-12.48-21.02-15.11,28.9-84.74,90-75.54-68.98,15.11-27.59-1.31-4.6-10.51-17.74-30.22,53.21Zm97.22-214.81l-97.22,93.28,74.23,130.07,28.9,23.65,40.73-21.68,22.33-23.65-37.44-17.74-2.63-2.63-40.73-74.23,5.26-9.2,28.25-24.96-20.36-9.85-24.31,20.36-25.62,46.64-1.97,1.31-19.71-34.82,70.29-67,41.39,39.41,14.45-15.11-55.84-53.87Zm-25.62,131.38l1.97-.66,38.1,68.32,17.74,8.54-.66,1.97-21.68,11.82h-1.97l-13.8-11.17-31.53-55.18v-2.63l11.82-21.02Zm0,0"/>
  <path class="cls-2" d="m307.86,141.81l-49.27,26.28-17.08,16.42,28.9,13.14,9.2,5.91,40.73,74.23v2.63l-4.6,7.88-33.5,27.59,21.68,10.51,28.9-24.31,25.62-45.98h1.97l19.05,34.82-70.95,65.03-5.91,3.28-34.82-38.1h-1.31l-13.8,15.77,50.58,53.21,103.13-93.94.66-1.97-74.23-130.72-24.96-21.68Zm-3.94,26.28l2.63.66,9.2,8.54,30.87,55.18v1.97l-11.82,20.36h-2.63l-37.44-68.98-9.85-4.6-.66-2.63,19.71-10.51Zm103.13,3.94l-97.88-93.28-107.08,103.79-10.51,21.02,12.48,22.33,15.11-29.56,90.65-87.37,69.63,67.66-15.77,27.59,12.48,21.68,30.87-53.87Zm0,0"/>
  <text class="cls-3" transform="translate(437.31 301.4)"><tspan x="0" y="0">Cephalon</tspan></text>
  <text class="cls-4" transform="translate(1294.25 356.91)"><tspan x="0" y="0">ENGINE</tspan></text>
</svg>