<?xml version="1.0" encoding="UTF-8"?>
<svg id="Layer_1" data-name="Layer 1" xmlns="http://www.w3.org/2000/svg" viewBox="0 0 340 364">
  <defs>
    <style>
      .cls-1 {
        fill: #6b21a8;
      }

      .cls-1, .cls-2 {
        fill-rule: evenodd;
        stroke: #fff;
        stroke-miterlimit: 10;
      }

      .cls-2 {
        fill: #0891b2;
      }
    </style>
  </defs>
  <path class="cls-1" d="m9.69,233.01l8.47,9.12,95.1,85.33,98.35-104.87,11.08-21.5-12.37-20.84-14.98,28.66-84.02,89.24-74.9-68.4,14.98-27.36-1.3-4.56-10.42-17.59-29.96,52.76h0ZM106.09,20.01L9.69,112.5l73.6,128.97,28.66,23.45,40.39-21.5,22.14-23.45-37.12-17.59-2.61-2.61-40.39-73.6,5.22-9.12,28.01-24.75-20.19-9.77-24.1,20.19-25.4,46.25-1.95,1.3-19.54-34.53L106.09,49.31l41.04,39.08,14.33-14.98-55.37-53.41v.02Zm-25.4,130.27l1.95-.65,37.78,67.74,17.59,8.47-.65,1.95-21.5,11.72h-1.95l-13.68-11.08-31.26-54.71v-2.61l11.72-20.84h0Z"/>
  <path class="cls-2" d="m227.25,81.9l-48.85,26.06-16.94,16.28,28.66,13.03,9.12,5.86,40.39,73.6v2.61l-4.56,7.81-33.22,27.36,21.5,10.42,28.66-24.1,25.4-45.59h1.95l18.89,34.53-70.35,64.48-5.86,3.25-34.53-37.78h-1.3l-13.68,15.64,50.15,52.76,102.26-93.15.65-1.95-73.6-129.62-24.75-21.5h0Zm-3.91,26.06l2.61.65,9.12,8.47,30.61,54.71v1.95l-11.72,20.19h-2.61l-37.12-68.4-9.77-4.56-.65-2.61,19.54-10.42h0Zm102.26,3.91L228.55,19.37l-106.18,102.91-10.42,20.84,12.37,22.14,14.98-29.31,89.88-86.63,69.04,67.09-15.64,27.36,12.37,21.5,30.61-53.41h.02Z"/>
</svg>