<?xml version="1.0" encoding="UTF-8"?>
<svg id="Layer_1" data-name="Layer 1" xmlns="http://www.w3.org/2000/svg" viewBox="0 0 315.71 308.55">
  <defs>
    <style>
      .cls-1 {
        fill: #6b21a8;
      }

      .cls-1, .cls-2 {
        fill-rule: evenodd;
        stroke-width: 0px;
      }

      .cls-2 {
        fill: #0891b2;
      }
    </style>
  </defs>
  <path class="cls-1" d="m0,213.51l8.46,9.12,95.04,85.28,98.29-104.8,11.07-21.48-12.37-20.83-14.97,28.64-83.97,89.18L26.7,210.25l14.97-27.34-1.3-4.56-10.41-17.58L0,213.51h0ZM96.34.64L0,93.08l73.56,128.89,28.64,23.44,40.36-21.48,22.13-23.44-37.1-17.58-2.61-2.61-40.36-73.56,5.21-9.12,27.99-24.73-20.18-9.76-24.09,20.18-25.39,46.22-1.95,1.3-19.53-34.5L96.34,29.93l41.01,39.05,14.32-14.97L96.34.62v.02Zm-25.39,130.19l1.95-.65,37.75,67.7,17.58,8.46-.65,1.95-21.48,11.71h-1.95l-13.67-11.07-31.24-54.68v-2.61l11.71-20.83h0Z"/>
  <path class="cls-2" d="m217.42,62.49l-48.82,26.04-16.93,16.27,28.64,13.02,9.12,5.86,40.36,73.56v2.61l-4.56,7.81-33.2,27.34,21.48,10.41,28.64-24.09,25.39-45.56h1.95l18.88,34.5-70.31,64.44-5.86,3.25-34.5-37.75h-1.3l-13.67,15.63,50.12,52.73,102.19-93.09.65-1.95-73.56-129.53-24.73-21.48h0Zm-3.9,26.04l2.61.65,9.12,8.46,30.59,54.68v1.95l-11.71,20.18h-2.61l-37.1-68.35-9.76-4.56-.65-2.61,19.53-10.41h0Zm102.19,3.9L218.72,0l-106.11,102.85-10.41,20.83,12.37,22.13,14.97-29.29L219.36,29.94l69,67.05-15.63,27.34,12.37,21.48,30.59-53.38h.02Z"/>
</svg>